# xmcd
#
# Track frame offsets: 
#        150
#        11259
#        28249
#        48972
#        68017
#        84111
#
# Disc length: 1345 seconds
#
# Revision: 0
# Processed by: cddbd v1.5.2PL0 Copyright (c) Steve Scherf et al.
# Submitted via: ExactAudioCopy v0.99pb5
#
DISCID=39053f06
DTITLE=MohaviSoul - Blue Diesel
DYEAR=2013
DGENRE=Bluegrass
TTITLE0=Lonesome Now
TTITLE1=Wanted
TTITLE2=Full Moon
TTITLE3=Blue Diesel
TTITLE4=P C H
TTITLE5=Silver
EXTD=
EXTT0=
EXTT1=
EXTT2=
EXTT3=
EXTT4=
EXTT5=
PLAYORDER=
